<svg width="32" height="32" viewBox="0 0 32 32" fill="none" xmlns="http://www.w3.org/2000/svg">
<circle cx="16" cy="16" r="16" fill="#FEE500"/>
<path d="M16.0767 8C11.2651 8 7.38477 11.1042 7.38477 14.8728C7.38477 17.3189 8.99898 19.4609 11.4203 20.6839L10.6008 23.7448C10.5853 23.7907 10.5829 23.8399 10.5939 23.887C10.6049 23.9342 10.6287 23.9773 10.6629 24.0117C10.7126 24.0556 10.7766 24.0798 10.8429 24.08C10.8979 24.0756 10.9501 24.0538 10.9919 24.0179L14.5183 21.6401C15.0389 21.7119 15.5636 21.7492 16.0891 21.7518C20.8945 21.7518 24.781 18.6476 24.781 14.8728C24.781 11.098 20.8821 8 16.0767 8Z" fill="#392020"/>
<path d="M10.4271 13.7863H9.47718C9.35944 13.7897 9.24317 13.7595 9.14192 13.6994C9.09697 13.6712 9.05832 13.634 9.02841 13.5902C8.99849 13.5464 8.97796 13.4969 8.96808 13.4448C8.96507 13.4117 8.96507 13.3786 8.96808 13.3455C8.96513 13.2837 8.97713 13.222 9.00307 13.1658C9.02901 13.1096 9.06812 13.0605 9.11709 13.0227C9.22532 12.9443 9.35597 12.9029 9.4896 12.9047H12.3517C12.4704 12.9005 12.5875 12.933 12.687 12.9978C12.733 13.0247 12.7725 13.0615 12.8025 13.1056C12.8326 13.1496 12.8525 13.1997 12.8608 13.2524C12.8638 13.2833 12.8638 13.3145 12.8608 13.3455C12.8637 13.4082 12.8518 13.4707 12.8259 13.5279C12.8 13.5851 12.7609 13.6353 12.7118 13.6745C12.6062 13.7528 12.4768 13.7923 12.3455 13.7863H11.4267V17.052C11.4304 17.1215 11.4196 17.1911 11.395 17.2563C11.3705 17.3215 11.3326 17.3809 11.2839 17.4307C11.2371 17.4783 11.1809 17.5156 11.1189 17.5402C11.0569 17.5648 10.9904 17.5761 10.9238 17.5735C10.8072 17.5768 10.693 17.5395 10.6009 17.468C10.5132 17.3981 10.4537 17.2988 10.4333 17.1885C10.4272 17.1432 10.4272 17.0973 10.4333 17.052L10.4271 13.7863Z" fill="#392020"/>
<path d="M13.1347 13.1467C13.162 13.0445 13.2261 12.956 13.3147 12.8983C13.4091 12.8448 13.5167 12.819 13.6252 12.8238H13.8611C13.9761 12.8197 14.09 12.8476 14.1901 12.9045C14.2962 12.9758 14.3715 13.0844 14.4012 13.2087L15.6429 16.7166C15.6751 16.8081 15.7021 16.9014 15.7236 16.996C15.7258 17.0353 15.7258 17.0746 15.7236 17.1139C15.7257 17.1744 15.7146 17.2347 15.691 17.2904C15.6674 17.3462 15.6319 17.3961 15.587 17.4368C15.5435 17.4814 15.4913 17.5165 15.4336 17.54C15.376 17.5635 15.3141 17.5748 15.2518 17.5733C15.156 17.5829 15.0599 17.5599 14.9788 17.5081C14.8977 17.4563 14.8364 17.3787 14.8048 17.2878L14.544 16.5241H12.9112L12.6504 17.2878C12.6196 17.3805 12.5575 17.4596 12.4749 17.5117C12.3923 17.5637 12.2941 17.5855 12.1972 17.5733C12.0922 17.5761 11.9894 17.5433 11.9054 17.4802C11.8236 17.4151 11.7684 17.3224 11.7502 17.2195C11.7469 17.1844 11.7469 17.149 11.7502 17.1139C11.7395 17.0523 11.7395 16.9893 11.7502 16.9277C11.7502 16.8594 11.7936 16.7849 11.8185 16.7166L13.1347 13.1467ZM13.7555 13.96L13.1657 15.8226H14.3391L13.7555 13.96Z" fill="#392020"/>
<path d="M15.8658 13.3453C15.8595 13.206 15.9086 13.0698 16.0024 12.9666C16.05 12.9185 16.1073 12.8809 16.1704 12.8563C16.2335 12.8318 16.301 12.8206 16.3687 12.8238C16.485 12.8224 16.5985 12.8595 16.6915 12.9293C16.7777 13.0022 16.835 13.1035 16.8529 13.2149C16.859 13.2581 16.859 13.3021 16.8529 13.3453V16.611H18.5603C18.6786 16.6095 18.7949 16.6417 18.8955 16.7041C18.9407 16.732 18.9796 16.7691 19.0095 16.8129C19.0395 16.8568 19.0599 16.9064 19.0694 16.9587C19.0694 16.9587 19.0694 17.0208 19.0694 17.0518C19.0723 17.1136 19.0603 17.1752 19.0344 17.2314C19.0084 17.2876 18.9693 17.3368 18.9204 17.3746C18.8121 17.453 18.6815 17.4944 18.5479 17.4926H16.4494C16.3157 17.5012 16.1829 17.4664 16.0707 17.3933C15.9703 17.3182 15.9034 17.2068 15.8844 17.0829C15.8799 17.0146 15.8799 16.9462 15.8844 16.8779L15.8658 13.3453Z" fill="#392020"/>
<path d="M19.1815 13.3454C19.1778 13.2065 19.2266 13.0712 19.3181 12.9667C19.4111 12.8821 19.5305 12.8322 19.656 12.8254C19.7816 12.8186 19.9056 12.8553 20.0072 12.9294C20.0953 13.0016 20.1548 13.1028 20.1749 13.2149C20.1779 13.2584 20.1779 13.302 20.1749 13.3454V14.8664L21.7456 13.0535C21.8061 12.9917 21.8704 12.9337 21.9381 12.8797C22.0018 12.8418 22.075 12.8224 22.1492 12.8238C22.2577 12.8232 22.3638 12.8557 22.4534 12.9169C22.4956 12.9454 22.5316 12.9821 22.5594 13.0247C22.5871 13.0674 22.606 13.1152 22.6148 13.1653C22.6173 13.1776 22.6173 13.1903 22.6148 13.2026C22.6118 13.2169 22.6118 13.2317 22.6148 13.246C22.6146 13.3113 22.5975 13.3755 22.5651 13.4323C22.5322 13.4924 22.4926 13.5486 22.4472 13.5999L21.4166 14.7299L22.6583 16.6545V16.7166C22.7227 16.8055 22.773 16.904 22.8073 17.0084V17.0394C22.8144 17.1113 22.8041 17.184 22.777 17.251C22.75 17.3181 22.7071 17.3775 22.6521 17.4243C22.5485 17.5026 22.4218 17.5442 22.292 17.5423C22.2057 17.5459 22.12 17.5266 22.0436 17.4864C21.9609 17.431 21.8928 17.3564 21.845 17.2691L20.6902 15.4066L20.1376 15.984V17.0208C20.1413 17.1597 20.0926 17.2949 20.001 17.3995C19.952 17.4474 19.8936 17.4849 19.8295 17.5094C19.7655 17.534 19.6971 17.5452 19.6285 17.5423C19.514 17.5447 19.4021 17.5074 19.3119 17.4368C19.2242 17.3669 19.1647 17.2677 19.1442 17.1574C19.1381 17.1121 19.1381 17.0661 19.1442 17.0208L19.1815 13.3454Z" fill="#392020"/>
</svg>
